HIERARCHY
ROOT Hips
{
	OFFSET 0.000000 71.427986 0.000000
	CHANNELS 6 Xposition Yposition Zposition Xrotation Yrotation Zrotation
	JOINT Pelvis
	{
		OFFSET 0.000000 0.000000 0.000000
		CHANNELS 3 Xrotation Yrotation Zrotation
		JOINT LeftUpLeg
		{
			OFFSET 6.797100 -2.508499 -1.318700
			CHANNELS 3 Xrotation Yrotation Zrotation
			JOINT LeftLeg
			{
				OFFSET 0.069008 -29.241863 0.690200
				CHANNELS 3 Xrotation Yrotation Zrotation
				JOINT LeftFoot
				{
					OFFSET -0.069008 -29.568123 -0.266800
					CHANNELS 3 Xrotation Yrotation Zrotation
					JOINT LeftToeBase
					{
						OFFSET 3.145500 -8.631000 16.059900
						CHANNELS 3 Xrotation Yrotation Zrotation
						End Site
						{
							OFFSET 0.000000 18.501587 0.000000
						}
					}
				}
			}
			JOINT Left_ShortSleeve
			{
				OFFSET 0.265923 -10.480953 1.153800
				CHANNELS 3 Xrotation Yrotation Zrotation
				End Site
				{
					OFFSET 1.725763 19.823879 0.000000
				}
			}
		}
		JOINT RightUpLeg
		{
			OFFSET -6.797100 -2.508499 -1.318700
			CHANNELS 3 Xrotation Yrotation Zrotation
			JOINT RightLeg
			{
				OFFSET -0.082453 -29.241932 0.688000
				CHANNELS 3 Xrotation Yrotation Zrotation
				JOINT RightFoot
				{
					OFFSET 0.082453 -29.568058 -0.264600
					CHANNELS 3 Xrotation Yrotation Zrotation
					JOINT RightToeBase
					{
						OFFSET -3.115300 -8.682800 16.113400
						CHANNELS 3 Xrotation Yrotation Zrotation
						End Site
						{
							OFFSET 0.000000 18.567114 0.000000
						}
					}
				}
			}
			JOINT Right_ShortSleeve
			{
				OFFSET -0.265923 -10.480953 1.153800
				CHANNELS 3 Xrotation Yrotation Zrotation
				End Site
				{
					OFFSET -1.725766 19.823910 0.000000
				}
			}
		}
	}
	JOINT Spine
	{
		OFFSET 0.000000 13.368103 0.470500
		CHANNELS 3 Xrotation Yrotation Zrotation
		JOINT Spine1
		{
			OFFSET 0.147000 13.837402 0.538800
			CHANNELS 3 Xrotation Yrotation Zrotation
			JOINT Spine2
			{
				OFFSET 0.168000 16.242897 -1.435500
				CHANNELS 3 Xrotation Yrotation Zrotation
				JOINT Neck
				{
					OFFSET 0.217200 18.631500 -1.679100
					CHANNELS 3 Xrotation Yrotation Zrotation
					JOINT Head
					{
						OFFSET 0.000000 6.599396 1.385900
						CHANNELS 3 Xrotation Yrotation Zrotation
						JOINT Hat
						{
							OFFSET -0.532200 27.220596 -10.096100
							CHANNELS 3 Xrotation Yrotation Zrotation
							End Site
							{
								OFFSET 0.000000 22.029861 0.000000
							}
						}
						JOINT HairD
						{
							OFFSET -10.777400 17.437393 -1.325900
							CHANNELS 3 Xrotation Yrotation Zrotation
							JOINT HairD1
							{
								OFFSET -3.290299 -11.051193 1.062200
								CHANNELS 3 Xrotation Yrotation Zrotation
								End Site
								{
									OFFSET 0.000000 11.579437 0.000000
								}
							}
						}
						JOINT HairB
						{
							OFFSET -10.777400 17.437393 1.467900
							CHANNELS 3 Xrotation Yrotation Zrotation
							JOINT HairB1
							{
								OFFSET -1.561200 -12.956299 3.590200
								CHANNELS 3 Xrotation Yrotation Zrotation
								End Site
								{
									OFFSET 0.000000 13.534866 0.000000
								}
							}
						}
						JOINT HairA
						{
							OFFSET 9.713100 17.437393 1.467900
							CHANNELS 3 Xrotation Yrotation Zrotation
							JOINT HairA1
							{
								OFFSET 1.561200 -12.956299 3.590200
								CHANNELS 3 Xrotation Yrotation Zrotation
								End Site
								{
									OFFSET 0.000000 13.534866 0.000000
								}
							}
						}
						JOINT HairC
						{
							OFFSET 9.713100 17.437393 -1.325900
							CHANNELS 3 Xrotation Yrotation Zrotation
							JOINT HairC1
							{
								OFFSET 3.290300 -11.051193 1.062200
								CHANNELS 3 Xrotation Yrotation Zrotation
								End Site
								{
									OFFSET 0.000000 11.579437 0.000000
								}
							}
						}
					}
				}
				JOINT LeftShoulder
				{
					OFFSET 5.101800 15.108002 -2.763700
					CHANNELS 3 Xrotation Yrotation Zrotation
					JOINT LeftArm
					{
						OFFSET 9.825497 2.506317 -1.597400
						CHANNELS 3 Xrotation Yrotation Zrotation
						JOINT LeftForeArm
						{
							OFFSET 21.966244 0.000000 0.000000
							CHANNELS 3 Xrotation Yrotation Zrotation
							JOINT LeftHand
							{
								OFFSET 33.879036 0.000000 0.000000
								CHANNELS 3 Xrotation Yrotation Zrotation
								JOINT LeftHandThumb1
								{
									OFFSET 6.715286 -2.359680 3.363841
									CHANNELS 3 Xrotation Yrotation Zrotation
									JOINT LeftHandThumb2
									{
										OFFSET 2.507072 -1.447464 1.447461
										CHANNELS 3 Xrotation Yrotation Zrotation
										JOINT LeftHandThumb3
										{
											OFFSET 2.898338 -1.673355 1.673357
											CHANNELS 3 Xrotation Yrotation Zrotation
											End Site
											{
												OFFSET -0.295959 3.727692 -0.131651
											}
										}
									}
								}
								JOINT LeftHandIndex1
								{
									OFFSET 14.190811 -0.254547 3.840278
									CHANNELS 3 Xrotation Yrotation Zrotation
									JOINT LeftHandIndex2
									{
										OFFSET 3.551727 0.000000 -0.000000
										CHANNELS 3 Xrotation Yrotation Zrotation
										JOINT LeftHandIndex3
										{
											OFFSET 2.894196 0.000000 0.000000
											CHANNELS 3 Xrotation Yrotation Zrotation
											End Site
											{
												OFFSET -1.000603 2.690872 0.366626
											}
										}
									}
								}
								JOINT LeftHandMiddle1
								{
									OFFSET 13.776489 0.000000 0.000000
									CHANNELS 3 Xrotation Yrotation Zrotation
									JOINT LeftHandMiddle2
									{
										OFFSET 3.438232 0.000000 0.000000
										CHANNELS 3 Xrotation Yrotation Zrotation
										JOINT LeftHandMiddle3
										{
											OFFSET 3.691551 0.000000 0.000000
											CHANNELS 3 Xrotation Yrotation Zrotation
											End Site
											{
												OFFSET -1.082298 3.499527 0.457670
											}
										}
									}
								}
								JOINT LeftHandRing1
								{
									OFFSET 13.966164 -0.268127 -3.067488
									CHANNELS 3 Xrotation Yrotation Zrotation
									JOINT LeftHandRing2
									{
										OFFSET 3.162567 0.000000 0.000000
										CHANNELS 3 Xrotation Yrotation Zrotation
										JOINT LeftHandRing3
										{
											OFFSET 3.324348 0.000000 0.000000
											CHANNELS 3 Xrotation Yrotation Zrotation
											End Site
											{
												OFFSET -0.861900 3.184998 0.405154
											}
										}
									}
								}
								JOINT LeftHandPinky1
								{
									OFFSET 13.131393 -0.168503 -5.746925
									CHANNELS 3 Xrotation Yrotation Zrotation
									JOINT LeftHandPinky2
									{
										OFFSET 2.849182 0.000000 0.000000
										CHANNELS 3 Xrotation Yrotation Zrotation
										JOINT LeftHandPinky3
										{
											OFFSET 2.805038 0.000000 0.000000
											CHANNELS 3 Xrotation Yrotation Zrotation
											End Site
											{
												OFFSET -0.882500 2.642609 0.325652
											}
										}
									}
								}
							}
							JOINT Left_Sleeve
							{
								OFFSET 6.592125 -0.646545 0.805568
								CHANNELS 3 Xrotation Yrotation Zrotation
								End Site
								{
									OFFSET -0.000179 20.275787 -0.000000
								}
							}
						}
					}
				}
				JOINT RightShoulder
				{
					OFFSET -5.731700 15.108002 -2.763700
					CHANNELS 3 Xrotation Yrotation Zrotation
					JOINT RightArm
					{
						OFFSET -9.825497 2.506317 -1.597400
						CHANNELS 3 Xrotation Yrotation Zrotation
						JOINT RightForeArm
						{
							OFFSET -21.966242 0.000000 0.000000
							CHANNELS 3 Xrotation Yrotation Zrotation
							JOINT RightHand
							{
								OFFSET -33.879032 0.000000 0.000000
								CHANNELS 3 Xrotation Yrotation Zrotation
								JOINT RightHandThumb1
								{
									OFFSET -6.715286 -2.359680 3.363841
									CHANNELS 3 Xrotation Yrotation Zrotation
									JOINT RightHandThumb2
									{
										OFFSET -2.507072 -1.447464 1.447461
										CHANNELS 3 Xrotation Yrotation Zrotation
										JOINT RightHandThumb3
										{
											OFFSET -2.898338 -1.673355 1.673357
											CHANNELS 3 Xrotation Yrotation Zrotation
											End Site
											{
												OFFSET 0.295959 3.727692 -0.131651
											}
										}
									}
								}
								JOINT RightHandIndex1
								{
									OFFSET -14.190811 -0.254547 3.840278
									CHANNELS 3 Xrotation Yrotation Zrotation
									JOINT RightHandIndex2
									{
										OFFSET -3.551727 0.000000 -0.000000
										CHANNELS 3 Xrotation Yrotation Zrotation
										JOINT RightHandIndex3
										{
											OFFSET -2.894196 0.000000 0.000000
											CHANNELS 3 Xrotation Yrotation Zrotation
											End Site
											{
												OFFSET 1.000603 2.690872 0.366626
											}
										}
									}
								}
								JOINT RightHandMiddle1
								{
									OFFSET -13.776489 0.000000 0.000000
									CHANNELS 3 Xrotation Yrotation Zrotation
									JOINT RightHandMiddle2
									{
										OFFSET -3.438232 0.000000 0.000000
										CHANNELS 3 Xrotation Yrotation Zrotation
										JOINT RightHandMiddle3
										{
											OFFSET -3.691551 0.000000 0.000000
											CHANNELS 3 Xrotation Yrotation Zrotation
											End Site
											{
												OFFSET 1.082298 3.499527 0.457670
											}
										}
									}
								}
								JOINT RightHandRing1
								{
									OFFSET -13.966164 -0.268127 -3.067488
									CHANNELS 3 Xrotation Yrotation Zrotation
									JOINT RightHandRing2
									{
										OFFSET -3.162567 0.000000 0.000000
										CHANNELS 3 Xrotation Yrotation Zrotation
										JOINT RightHandRing3
										{
											OFFSET -3.324348 0.000000 0.000000
											CHANNELS 3 Xrotation Yrotation Zrotation
											End Site
											{
												OFFSET 0.861900 3.184998 0.405154
											}
										}
									}
								}
								JOINT RightHandPinky1
								{
									OFFSET -13.131393 -0.168503 -5.746925
									CHANNELS 3 Xrotation Yrotation Zrotation
									JOINT RightHandPinky2
									{
										OFFSET -2.849182 0.000000 0.000000
										CHANNELS 3 Xrotation Yrotation Zrotation
										JOINT RightHandPinky3
										{
											OFFSET -2.805038 0.000000 0.000000
											CHANNELS 3 Xrotation Yrotation Zrotation
											End Site
											{
												OFFSET 0.882500 2.642609 0.325652
											}
										}
									}
								}
							}
							JOINT Right_Sleeve
							{
								OFFSET -6.592125 -0.646545 0.805568
								CHANNELS 3 Xrotation Yrotation Zrotation
								End Site
								{
									OFFSET 0.000179 20.275787 -0.000000
								}
							}
						}
					}
				}
				JOINT Bind_Right_JacketString
				{
					OFFSET -3.534800 11.969597 7.200700
					CHANNELS 3 Xrotation Yrotation Zrotation
					JOINT Bind_Right_JacketString1
					{
						OFFSET -0.319900 -6.102600 2.794100
						CHANNELS 3 Xrotation Yrotation Zrotation
						End Site
						{
							OFFSET 0.000000 6.719452 0.000000
						}
					}
				}
				JOINT Bind_Left_JacketString
				{
					OFFSET 2.904800 11.969597 7.200700
					CHANNELS 3 Xrotation Yrotation Zrotation
					JOINT Bind_Left_JacketString1
					{
						OFFSET 0.364800 -5.904503 3.186800
						CHANNELS 3 Xrotation Yrotation Zrotation
						End Site
						{
							OFFSET 0.000000 6.719513 0.000000
						}
					}
				}
				JOINT HairE
				{
					OFFSET 5.915200 17.612701 -11.592200
					CHANNELS 3 Xrotation Yrotation Zrotation
					JOINT HairE1
					{
						OFFSET 0.289200 -7.171898 -1.284500
						CHANNELS 3 Xrotation Yrotation Zrotation
						End Site
						{
							OFFSET 0.000000 7.291756 0.000000
						}
					}
				}
				JOINT HairF
				{
					OFFSET -0.864800 17.612701 -11.592200
					CHANNELS 3 Xrotation Yrotation Zrotation
					JOINT HairF1
					{
						OFFSET 0.000000 -14.087097 -2.127501
						CHANNELS 3 Xrotation Yrotation Zrotation
						End Site
						{
							OFFSET 0.000000 14.246841 0.000000
						}
					}
				}
				JOINT HairG
				{
					OFFSET -8.087700 17.612701 -11.592200
					CHANNELS 3 Xrotation Yrotation Zrotation
					JOINT HairG1
					{
						OFFSET -0.293600 -6.081398 -0.910100
						CHANNELS 3 Xrotation Yrotation Zrotation
						End Site
						{
							OFFSET 0.000000 6.156120 0.000000
						}
					}
				}
			}
		}
	}
	JOINT Pouch
	{
		OFFSET 0.000000 4.394501 10.847300
		CHANNELS 3 Xrotation Yrotation Zrotation
		End Site
		{
			OFFSET 0.000000 21.880577 0.000000
		}
	}
	JOINT Bag
	{
		OFFSET -13.229000 4.813004 -0.593300
		CHANNELS 3 Xrotation Yrotation Zrotation
		End Site
		{
			OFFSET 0.000000 21.880577 0.000000
		}
	}
	JOINT OccupyGuyFacialAnim_Joint
	{
		OFFSET 1.000000 -70.206398 -1.655000
		CHANNELS 3 Xrotation Yrotation Zrotation
		End Site
		{
			OFFSET 0.000000 21.880577 0.000000
		}
	}
}
MOTION
Frames: 4
Frame Time: 0.033333
-0.244749 63.009315 2.386406 14.423596 -7.092448 -7.179710 -0.000001 -0.000000 -0.000000 -26.759015 1.125597 9.308057 106.453942 -2.554735 -3.166955 -1.501158 -10.378684 8.519955 0.000000 -0.000001 0.000000 0.000001 -0.000000 -0.000000 -27.903095 -2.897590 6.030050 55.200995 0.689187 1.956894 -37.790136 4.612769 4.346395 -0.000000 -0.000000 0.000000 -0.000000 -0.000000 -0.000000 6.696655 0.220569 1.002411 13.404789 0.796343 -0.082394 13.404762 0.796346 -0.082393 2.707382 1.437883 -0.073152 -40.485536 -2.883490 7.909292 0.000001 0.000000 -0.000000 0.000001 0.000000 -0.000000 0.000001 0.000000 0.000000 0.000001 0.000000 -0.000000 -0.000000 0.000000 -0.000000 0.000001 0.000000 -0.000000 -0.000000 0.000000 -0.000000 0.000001 0.000000 -0.000000 0.000001 0.000000 -0.000000 -3.268518 -16.193193 -22.143113 17.436962 -11.297888 -42.672245 -0.078691 -42.761096 -0.002584 9.916500 -25.737613 33.758579 -1.074130 -12.185124 0.824698 0.755147 3.619434 2.113949 -0.000004 -0.000005 -0.000000 5.707773 -2.766662 -0.644553 0.342870 1.135746 -45.007050 0.000001 -0.000002 -0.000000 0.790704 4.662079 -12.658018 -1.831974 -3.210979 -52.396966 0.000002 0.000001 -0.000001 -17.940776 18.648723 -18.662520 -2.077404 -4.517245 -55.042312 0.000003 0.000002 0.000001 0.827574 25.069656 -34.046130 -2.716568 -8.221476 -53.396363 0.000001 -0.000001 0.000001 -0.000000 0.000001 -0.000001 -3.358043 8.504374 20.467881 12.813311 22.877083 49.832019 -0.133261 26.558361 0.018078 -26.702838 39.684751 -17.166972 15.142743 10.084245 -1.842351 -1.203984 -0.203708 -2.195595 0.000000 0.000002 0.000001 -5.849791 -3.759807 2.898609 0.551678 -1.850136 39.370201 -0.000001 0.000000 -0.000001 -5.424552 -1.903697 19.830438 -0.869541 1.820212 40.821298 0.000001 0.000001 0.000003 -12.572258 -5.085792 26.223150 -1.339178 4.331025 38.481603 0.000001 -0.000002 0.000000 -9.021029 4.312313 31.237327 -2.289476 9.203151 39.704583 -0.000002 0.000007 -0.000002 -0.000001 -0.000002 0.000001 -0.000001 0.000000 -0.000001 -0.000001 0.000000 -0.000000 -0.000001 0.000000 -0.000000 -0.000001 0.000000 -0.000000 -0.000001 0.000000 -0.000001 -0.000001 0.000000 -0.000000 -0.000001 0.000000 -0.000000 -0.000001 0.000000 -0.000000 -0.000001 0.000000 -0.000001 -0.000001 0.000000 -0.000000 -0.000001 -0.000000 -0.000000 -0.000001 -0.000000 -0.000000 -0.000001 -0.000000 -0.000000 
-0.182102 63.733704 8.333431 13.584668 -9.032036 -4.764518 0.000000 0.000001 -0.000000 -45.374972 -1.976099 9.354611 101.682303 -2.725707 -3.102364 -20.141395 -0.290355 -16.600204 -0.000000 -0.000000 0.000000 0.000002 -0.000000 -0.000000 -19.786853 0.395138 4.647779 51.362780 -0.567800 1.834950 -35.140196 5.913882 0.321965 -0.000001 -0.000000 0.000000 -0.000001 0.000000 -0.000000 6.484462 0.647001 0.108442 12.995191 1.176671 -1.466805 12.995193 1.176670 -1.466805 4.363334 1.176489 -0.230577 -40.936080 -3.553426 8.428176 -0.000000 -0.000000 -0.000000 -0.000000 -0.000000 -0.000000 -0.000000 -0.000000 0.000000 -0.000000 -0.000000 -0.000000 -0.000000 -0.000000 -0.000000 -0.000000 -0.000000 -0.000000 -0.000000 -0.000000 -0.000000 -0.000000 -0.000000 -0.000000 -0.000000 -0.000000 -0.000000 -4.404120 -17.007439 -26.398101 6.304717 -6.180462 -47.378007 -0.001010 -0.000080 0.000014 16.860160 -45.433609 31.474239 -1.356289 -12.042815 0.575530 0.669446 3.444475 2.101623 0.000004 -0.000001 -0.000001 5.433006 -2.754418 -0.748565 0.341830 1.134877 -44.926054 0.000006 0.000002 -0.000003 0.741672 4.444867 -12.669902 -1.821889 -3.203169 -52.240685 -0.000000 -0.000000 0.000002 -16.967575 18.031375 -19.031759 -2.066503 -4.509623 -54.885751 -0.000002 0.000002 -0.000001 1.081382 24.792378 -34.108121 -2.707568 -8.214958 -53.300454 -0.000001 -0.000003 -0.000001 0.000003 -0.000001 -0.000000 -2.385442 9.670530 16.369817 12.774098 20.074693 49.999102 -0.072986 50.962838 -0.014189 5.540810 35.749371 -20.959622 15.142760 10.084265 -1.842364 -1.203967 -0.203719 -2.195589 -0.000001 0.000001 0.000001 -5.849779 -3.759798 2.898604 0.551685 -1.850125 39.370221 -0.000001 0.000001 0.000001 -5.424523 -1.903673 19.830414 -0.869526 1.820212 40.821305 -0.000002 -0.000001 0.000001 -12.572238 -5.085779 26.223113 -1.339184 4.331032 38.481620 -0.000001 -0.000001 0.000001 -9.021018 4.312309 31.237314 -2.289477 9.203161 39.704610 -0.000002 0.000002 0.000002 0.000002 -0.000000 0.000000 0.000002 -0.000000 -0.000000 0.000000 -0.000001 0.000000 0.000002 -0.000000 -0.000000 0.000002 -0.000000 -0.000000 0.000002 -0.000000 -0.000000 0.000000 -0.000001 0.000000 0.000002 -0.000000 -0.000000 0.000002 -0.000000 -0.000000 0.000002 -0.000000 -0.000000 0.000000 -0.000001 0.000000 0.000000 0.000001 -0.000000 0.000000 0.000001 -0.000000 0.000000 0.000001 -0.000000 
-0.050898 65.254349 15.551833 12.265726 -10.593947 -1.813881 0.000000 0.000000 0.000000 -57.736573 0.476088 7.871159 83.988637 -2.125524 -2.777251 -23.502102 5.442210 -6.019373 -0.000000 0.000000 -0.000000 -0.000001 0.000000 -0.000000 -12.240893 3.290868 0.538165 50.001745 -0.738743 1.777517 -27.432340 7.266061 0.506947 0.000000 -0.000000 0.000000 0.000000 0.000000 -0.000000 6.307117 0.860564 -1.061163 12.644058 1.375112 -2.971937 12.644067 1.375109 -2.971937 6.359607 0.924140 -0.248158 -41.223200 -4.160769 8.947236 0.000001 0.000001 -0.000000 0.000001 0.000001 -0.000000 0.000001 0.000001 -0.000000 0.000001 0.000001 -0.000000 0.000000 0.000000 -0.000000 0.000001 0.000001 -0.000000 0.000000 0.000000 -0.000000 0.000001 0.000001 -0.000000 0.000001 0.000001 -0.000000 -4.398769 -16.843445 -26.366559 14.604121 1.209722 -54.555610 -0.008764 -0.000085 -0.000002 9.263953 -44.079790 27.565238 -1.606519 -11.947071 0.292208 0.424721 2.945077 2.064960 -0.000000 -0.000000 0.000001 5.153470 -2.726439 -1.020736 0.338774 1.132365 -44.687243 0.000004 0.000001 -0.000000 0.695129 4.226875 -12.745329 -1.792525 -3.180256 -51.784462 0.000003 0.000002 -0.000003 -15.912640 17.357164 -19.396965 -2.034853 -4.487279 -54.428876 -0.000003 -0.000002 -0.000002 1.226292 24.362535 -34.032241 -2.681152 -8.195690 -53.018681 0.000001 -0.000002 0.000002 0.000001 0.000000 0.000001 -2.183352 9.390866 15.296178 12.021608 14.690347 46.656650 0.000293 70.466208 -0.054867 10.512759 30.037574 -25.697695 15.142745 10.084264 -1.842356 -1.203975 -0.203727 -2.195598 -0.000001 -0.000001 -0.000001 -5.849797 -3.759792 2.898627 0.551686 -1.850130 39.370221 -0.000003 -0.000001 0.000000 -5.424535 -1.903674 19.830418 -0.869545 1.820209 40.821329 0.000002 0.000002 -0.000001 -12.572251 -5.085776 26.223126 -1.339176 4.331034 38.481631 0.000000 -0.000000 -0.000002 -9.021036 4.312304 31.237334 -2.289477 9.203152 39.704614 -0.000000 0.000001 0.000001 0.000003 -0.000001 0.000000 -0.000001 0.000000 0.000000 -0.000001 0.000000 0.000001 -0.000001 0.000000 0.000001 -0.000001 0.000000 0.000001 -0.000001 0.000000 0.000000 -0.000001 0.000000 0.000001 -0.000001 0.000000 0.000001 -0.000001 0.000000 0.000001 -0.000001 0.000000 0.000000 -0.000001 0.000000 0.000001 0.000000 0.000000 0.000000 0.000000 0.000000 0.000000 0.000000 0.000000 0.000000 
0.089380 66.581772 23.597750 10.321295 -11.826016 -0.219686 0.000001 -0.000001 0.000000 -60.301691 3.792045 8.532359 58.437808 -1.173544 -2.094002 -22.669639 4.865592 2.765188 -0.000000 0.000000 0.000000 -0.000000 0.000000 -0.000000 -7.165904 6.587712 -2.669384 51.634799 0.047343 1.824358 -10.260485 7.950938 -0.645146 -0.000002 -0.000000 -0.000000 0.000000 0.000000 -0.000000 6.169017 0.850859 -1.892429 12.367695 1.588931 -3.941376 12.367694 1.588924 -3.941376 8.550442 0.851875 -0.085398 -41.194893 -4.410498 9.320921 0.000002 -0.000000 0.000000 0.000002 -0.000000 0.000000 0.000002 -0.000000 0.000000 0.000002 -0.000000 -0.000000 0.000001 -0.000000 0.000000 0.000002 -0.000000 -0.000000 0.000001 -0.000000 0.000000 0.000002 -0.000000 0.000000 0.000002 -0.000000 0.000000 -4.254088 -16.824873 -25.840474 27.967289 6.400645 -62.695918 -0.206543 -19.150384 -0.017094 -5.667993 -26.946023 21.675998 -1.826590 -11.893005 -0.020391 0.039290 2.159735 2.003041 -0.000001 0.000001 -0.000000 4.870287 -2.682087 -1.441029 0.333823 1.128203 -44.297076 0.000001 -0.000001 0.000003 0.650164 4.008496 -12.876814 -1.745482 -3.142753 -51.047485 -0.000001 0.000001 -0.000003 -14.793088 16.635269 -19.750349 -1.984073 -4.450598 -53.690669 -0.000001 -0.000001 -0.000001 1.275249 23.801090 -33.822916 -2.638338 -8.164013 -52.559856 -0.000001 0.000002 -0.000002 -0.000002 0.000002 -0.000001 -2.499767 8.610158 16.380177 10.201905 14.446871 46.078433 0.002559 70.504839 -0.050383 9.973257 25.606236 -26.151884 15.142736 10.084234 -1.842372 -1.203980 -0.203714 -2.195573 0.000003 0.000000 0.000001 -5.849800 -3.759792 2.898620 0.551688 -1.850148 39.370208 -0.000002 -0.000001 0.000002 -5.424543 -1.903673 19.830419 -0.869533 1.820216 40.821315 0.000001 -0.000003 -0.000001 -12.572263 -5.085793 26.223115 -1.339196 4.331025 38.481634 0.000003 -0.000001 -0.000000 -9.021026 4.312295 31.237317 -2.289484 9.203181 39.704627 -0.000001 0.000000 -0.000001 0.000005 0.000003 0.000000 0.000002 -0.000000 0.000000 0.000003 0.000001 0.000001 0.000002 -0.000000 -0.000000 0.000002 -0.000000 -0.000000 0.000002 -0.000000 0.000000 0.000003 0.000001 0.000000 0.000002 -0.000000 -0.000000 0.000002 -0.000000 -0.000000 0.000002 -0.000000 0.000000 0.000003 0.000001 0.000000 0.000001 -0.000001 0.000000 0.000001 -0.000001 0.000000 0.000001 -0.000001 0.000000 
